<?xml version="1.0" encoding="UTF-8"?><svg id="Layer_2" xmlns="http://www.w3.org/2000/svg" viewBox="0 0 268.73 268.84"><g id="Layer_1-2"><path d="m0,144.77C0,137.6,0,130.43,0,123.26c.46-3.09.91-6.19,1.37-9.28,3.51-23.49,12.76-44.51,27.5-63.07C46.56,28.63,69.13,13.45,96.37,5.24c8.96-2.7,18.18-4.05,27.42-5.24h18.36c5.02.51,10.03.98,15.02,1.84,26.02,4.48,48.81,15.64,68.07,33.57,25.66,23.87,40.16,53.34,43.03,88.44,1.07,13.08.3,25.99-2.55,38.74-7.75,34.68-26.18,62.4-55.45,82.52-30.76,21.15-64.85,27.98-101.49,21.23-24.06-4.43-45.27-15.09-63.56-31.33-19.06-16.93-32.27-37.67-39.76-62.07C2.63,163.72,1.25,154.27,0,144.77Zm218.73,26.99c.09-2.92-1.18-5.22-3.17-7.22-24.59-24.59-49.18-49.19-73.77-73.78-1.24-1.24-2.59-2.36-4.28-2.94-4.45-1.5-7.91.07-11.07,3.25-16.39,16.48-32.85,32.89-49.28,49.32-8.15,8.16-16.33,16.29-24.44,24.5-3.85,3.9-3.93,9.71-.35,13.44,3.76,3.91,9.44,4.02,13.62.23.84-.76,1.62-1.59,2.43-2.39,21.02-21,42.03-42,63.07-62.98,3.04-3.03,2.34-3.32,5.76.09,20.76,20.76,41.52,41.53,62.28,62.29,1.3,1.3,2.56,2.66,4.02,3.75,3.13,2.33,6.56,2.76,10.08.93,3.4-1.77,5.05-4.68,5.11-8.49Z"/></g></svg>